<?xml version="1.0" encoding="UTF-8"?>
<svg id="katman_1" xmlns="http://www.w3.org/2000/svg" version="1.1" viewBox="0 0 994.9 986.3">
  <!-- Generator: Adobe Illustrator 30.5.1, SVG Export Plug-In . SVG Version: 2.1.4 Build 3)  -->
  <defs>
    <style>
      .st0 {
        fill: #8b0000;
      }

      .st1 {
        fill: #0a192f;
      }
    </style>
  </defs>
  <g>
    <path class="st0" d="M257.2,878.3l26.9-50.3c138.7,109.7,331.3,104.5,464.3-9.9,81.8-70.4,130.2-172.3,130-283.1h-206.8c0,0-26.5-55.1-26.5-55.1l284.8-.2c19.5,134.2-30,268.1-125.3,361.5-142.5,139.7-359.8,161.3-526.8,50.8l-20.6-13.7ZM269,875.2c175.9,125.3,407.5,98.2,550.7-62.7,78.6-88.3,116.5-205.2,102.6-324.3h-263.7c0,.1,18.6,37.9,18.6,37.9l209.5.2c3.6,106.7-39.5,207.6-113.7,280.8-132.3,130.4-337.5,145.2-486.1,34l-18,34.1Z"/>
    <path class="st0" d="M235.7,297.6c-114.8,133.1-119.8,327.7-14.6,466.6l-28.3,52.8c-80.9-94.3-115.4-216.8-98.1-338.8,25-176.6,160.2-319.6,335.9-354.6l-31.6,65.6c-63.4,21.4-119.4,57.5-163.3,108.4ZM210.3,764.6c-74.9-104.3-95-233.1-49.6-357.6,36.9-101.2,123.2-189.1,232.5-225.1l21.4-45.8C201.7,189,67.2,396.6,105.6,612.3c12.3,68.8,40.4,134,86,188.5l18.7-36.1Z"/>
    <path class="st0" d="M298.6,798.4l27.8-49.8c90.4,82.5,219.2,96,323.9,35.4,62.4-36.2,109.6-93.2,131.2-163.1l-40.3-.3-33.7-73.6,62-.3,8.9,18.7,70.3.8c-13.2,142.8-112.5,261-249.4,298.9-105.8,29.3-217.1,3.1-300.6-66.7ZM619.4,849.5c120.7-43.1,203.1-147.3,219.6-275l-66.4-.4-8.8-18.8-42.4.4,25.3,55.8,46.9.2c-27.1,99.4-102.4,177.1-201,206.6-92.5,27.7-188.8,6.7-263.7-55.7l-18.7,34c88,70.1,203.2,90.8,309.1,53Z"/>
    <path class="st0" d="M267.9,674.9l-30,57.4c-43.5-62.8-63-135.1-59.1-210.4,6.1-126.2,81.2-238.4,197.9-289.3l-45.8,93.5c-57.3,48.7-91.5,117.4-96.9,192.6-3.6,54.3,7.6,106.2,33.9,156.2ZM257.6,674c-62.9-120.8-34.9-265.2,65.9-353.5l32.8-67.7c-50.4,25.8-87.6,63-117.6,108.2-68.2,107.7-69.4,245.6-1.9,354.1l20.8-41Z"/>
    <path class="st0" d="M855.9,410.9c-39.5-109-127.6-192.2-239.6-222.8l-29.6-64.1c153.6,24.7,281.4,134.5,327,286.1l-57.8.9ZM861.7,402.1h40.4c-45.5-136.3-159.7-237-300.4-266.8l21.5,45.4c110.1,32.2,198,113.3,238.5,221.4Z"/>
    <path class="st0" d="M763.1,410.7c-21.2-43.4-51.6-78-91.4-104.2l-35.6-78.9c87.6,30.7,153.5,96.8,187.4,182.6l-60.4.5ZM769.1,402.6l41.9-.5c-31.5-71.1-85.5-126.9-158.1-158.6l25.5,56.3c38.3,26.9,69.2,60,90.7,102.8Z"/>
    <path class="st0" d="M269,875.2l18-34.1c148.6,111.2,353.7,96.4,486.1-34,74.2-73.1,117.3-174.1,113.7-280.8l-209.5-.2-18.6-37.8h263.7c13.9,118.9-24,235.8-102.6,324.1-143.2,160.9-374.8,188-550.7,62.7Z"/>
    <path class="st0" d="M210.3,764.6l-18.7,36.1c-45.6-54.4-73.7-119.6-86-188.5-38.4-215.7,96-423.2,309-476.2l-21.4,45.8c-109.4,36.1-195.6,123.9-232.5,225.1-45.4,124.5-25.3,253.3,49.6,357.6Z"/>
    <path class="st0" d="M619.4,849.5c-105.9,37.8-221.2,17.1-309.1-53l18.7-34c74.9,62.4,171.2,83.4,263.7,55.7,98.6-29.5,174-107.2,201-206.6l-46.9-.2-25.3-55.8,42.4-.4,8.8,18.8,66.4.4c-16.5,127.7-98.9,231.9-219.6,275Z"/>
    <path class="st0" d="M257.6,674l-20.8,41c-67.5-108.5-66.3-246.4,1.9-354.1,29.9-45.1,67.2-82.4,117.6-108.2l-32.8,67.7c-100.8,88.3-128.7,232.7-65.9,353.5Z"/>
    <path class="st0" d="M861.7,402.1c-40.5-108.1-128.4-189.2-238.5-221.4l-21.5-45.4c140.7,29.7,254.8,130.5,300.4,266.8h-40.4Z"/>
    <path class="st0" d="M769.1,402.6c-21.5-42.8-52.4-75.9-90.7-102.8l-25.5-56.3c72.6,31.7,126.6,87.5,158.1,158.6l-41.9.5Z"/>
  </g>
  <g>
    <path class="st1" d="M184.2,986.3H0s127.2-237.1,127.2-237.1l35.7,53.1-68.5,127.9h54.4c0,0,145.7-276.4,145.7-276.4h418.1s20.1,39.7,20.1,39.7l-40.7,43.5-13.9-27h-348s-146,276.4-146,276.4ZM178.8,977.6l145.8-276.4h358.9c0,0,11.1,21.6,11.1,21.6l27.7-30.4-15-29.3h-407.4s-145.4,275.3-145.4,275.3l-74.7.3,72.6-135.8-24.7-36.4L14.5,978.1l164.2-.5Z"/>
    <path class="st1" d="M509.3,129.4l-246.3,490.8c-11.5-31.3-16.1-62.4-15.4-95.5l198.6-395.9L511.5,0l218.3,463.6-61.6.2-158.9-334.4ZM509.7,109.1l164.6,346.7,41.9-.2L511,19.9l-216.6,431.4-37.5,74.2c-.1,23,.7,46.1,8.6,69L509.7,109.1Z"/>
    <path class="st1" d="M695.5,619.4h-382.8c0,.1,197.6-391.3,197.6-391.3l185.2,391.3ZM681.7,610.7l-171.7-362.6-182.6,362.4,354.3.2Z"/>
    <path class="st1" d="M814.8,849.9l36.7,72.2,52.4-.7-55.6-109.4,36.3-51.4,110.2,216.8-177.1.6-46.8-91,43.8-37.1ZM812,864.4l-29.8,25.3,41.1,79.8,157.9-.6-97.4-190.7-24.9,34.8,59.7,117.6h-72.2c0,.1-34.4-66.3-34.4-66.3Z"/>
    <polygon class="st1" points="178.8 977.6 14.5 978.1 127.8 766.5 152.5 802.8 79.9 938.6 154.6 938.3 300 663 707.4 663.1 722.4 692.4 694.7 722.8 683.6 701.3 324.6 701.2 178.8 977.6"/>
    <path class="st1" d="M509.7,109.1l-244.2,485.4c-7.9-22.9-8.7-45.9-8.6-69l37.5-74.2L511,19.9l205.2,435.6-41.9.2L509.7,109.1Z"/>
    <path class="st1" d="M681.7,610.7l-354.3-.2,182.6-362.4,171.7,362.6ZM620.2,572l-111.1-235.2-118.1,235.2h229.2Z"/>
    <polygon class="st1" points="812 864.4 846.4 930.8 918.6 930.7 858.9 813.1 883.8 778.3 981.2 969 823.3 969.5 782.2 889.8 812 864.4"/>
    <path class="st1" d="M620.2,572h-229.2c0,0,118.1-235.2,118.1-235.2l111.1,235.2ZM606.1,562.9l-97.2-205.3-103.4,205.5h200.6Z"/>
  </g>
</svg>